Coordinates
version=1
nRows=11
nColumns=63
inDegrees=yes

Units are S.I. units (second, meters, Newtons, ...)
If the header above contains a line with 'inDegrees', this indicates whether rotational values are in degrees (yes) or radians (no).

endheader
time	pelvis_tilt	pelvis_list	pelvis_rotation	pelvis_tx	pelvis_ty	pelvis_tz	hip_flexion_r	hip_adduction_r	hip_rotation_r	knee_angle_r	knee_angle_r_beta	ankle_angle_r	subtalar_angle_r	mtp_angle_r	hip_flexion_l	hip_adduction_l	hip_rotation_l	knee_angle_l	knee_angle_l_beta	ankle_angle_l	subtalar_angle_l	mtp_angle_l	L5_S1_Flex_Ext	L5_S1_Lat_Bending	L5_S1_axial_rotation	L4_L5_Flex_Ext	L4_L5_Lat_Bending	L4_L5_axial_rotation	L3_L4_Flex_Ext	L3_L4_Lat_Bending	L3_L4_axial_rotation	L2_L3_Flex_Ext	L2_L3_Lat_Bending	L2_L3_axial_rotation	L1_L2_Flex_Ext	L1_L2_Lat_Bending	L1_L2_axial_rotation	L1_T12_Flex_Ext	L1_T12_Lat_Bending	L1_T12_axial_rotation	Abs_r3	Abs_r2	Abs_r1	Abs_t1	Abs_t2	neck_flexion	neck_bending	neck_rotation	arm_flex_r	arm_add_r	arm_rot_r	elbow_flex_r	pro_sup_r	wrist_flex_r	wrist_dev_r	arm_flex_l	arm_add_l	arm_rot_l	elbow_flex_l	pro_sup_l	wrist_flex_l	wrist_dev_l
      0.00000000	     -2.94519942	     -5.86747539	    100.30817032	      0.17620523	      1.05544113	      0.53304360	      7.96466388	     -4.37748223	     -6.74326646	      3.73131279	      0.06512369	     25.38069972	     14.15531447	      0.00000000	     10.56607371	      3.12595027	      4.59859248	      6.12779506	      0.10695020	     17.19198675	     -3.65916645	      0.00000000	     -0.10569190	     -0.45875610	     -0.76670122	     -0.19628044	     -0.61014561	     -0.81462005	     -0.17364123	     -1.11541958	     -0.81462005	     -0.12079528	     -1.11541958	     -0.67086357	     -0.09814550	     -0.93549544	     -0.62294474	     -0.06039235	     -0.71061320	     -0.57502591	     -0.75494671	     -5.18954074	     -4.26416217	      0.00000000	      0.00000000	     12.51559662	     -0.45967623	    -18.91468947	     20.32161808	      2.07687386	     85.09101987	     32.71922740	      2.31977268	    -16.49752584	      6.53681531	     20.08831886	     -0.81646980	     82.89590337	     22.35501028	     76.71152221	     -8.48194576	     -3.70096007
      0.02325581	     -2.21051860	     -6.11599298	    103.52112858	      0.17352853	      1.05531487	      0.53299659	      7.72576908	     -3.99111809	     -9.58345069	      3.43936756	      0.06002829	     25.42660287	     13.77807543	      0.00000000	     11.82117137	      3.03997436	      8.94328225	      7.60325731	      0.13270187	     17.72268090	     -4.11346463	      0.00000000	     -0.11852344	     -0.41119179	     -1.23470636	     -0.22010988	     -0.54688508	     -1.31187550	     -0.19472216	     -0.99977171	     -1.31187550	     -0.13546044	     -0.99977171	     -1.08036806	     -0.11006087	     -0.83850229	     -1.00319891	     -0.06772429	     -0.63693608	     -0.92602977	     -0.84660110	     -4.65148372	     -6.86706634	      0.00000000	      0.00000000	     14.22947008	      0.53486727	    -19.29715062	     19.74933988	      1.75704770	     83.55279902	     33.06689053	      2.35594561	    -17.34219090	      5.76315375	     19.15540324	     -0.72566851	     85.91282200	     22.44578222	     60.07899833	     -4.25904989	     -2.62556441
      0.04651163	     -1.69974411	     -6.27320940	    105.74255623	      0.17186428	      1.05518261	      0.53282489	      7.67787146	     -3.71631415	    -11.15937961	      3.45665146	      0.06032995	     25.48713503	     12.91594641	      0.00000000	     12.59409058	      2.96393314	     10.94175539	      8.39611054	      0.14653977	     18.24072918	     -3.05412029	      0.00000000	     -0.12983361	     -0.38754730	     -1.54434444	     -0.24111399	     -0.51543791	     -1.64086597	     -0.21330363	     -0.94228251	     -1.64086597	     -0.14838683	     -0.94228251	     -1.35130139	     -0.12056349	     -0.79028646	     -1.25477986	     -0.07418692	     -0.60031077	     -1.15825833	     -0.92738846	     -4.38401257	     -8.58918047	      0.00000000	      0.00000000	     15.40347822	      1.54401762	    -20.05365349	     19.19316246	      1.67541435	     82.49630687	     33.25303562	      2.27701199	    -17.84883589	      5.19900088	     18.29797596	     -0.73449418	     85.37542864	     22.59542194	     57.96988089	     -2.29034623	     -1.00302165
      0.06976744	     -0.70482486	     -6.25274776	    107.80145426	      0.16976445	      1.05485319	      0.53343862	      7.63592376	     -2.96856954	    -13.98426912	      3.38411828	      0.05906401	     25.47782730	     14.01454930	      0.00000000	     14.20364506	      2.14738055	      8.37992846	     10.86356212	      0.18960493	     20.61809651	      3.56884641	      0.00000000	     -0.12806351	     -0.28092638	     -1.82673375	     -0.23782674	     -0.37363209	     -1.94090461	     -0.21039554	     -0.68304441	     -1.94090461	     -0.14636379	     -0.68304441	     -1.59839203	     -0.11891978	     -0.57286508	     -1.48422117	     -0.07317549	     -0.43515497	     -1.37005031	     -0.91474484	     -3.17789544	    -10.15974509	      0.00000000	      0.00000000	     15.65867809	      1.16667553	    -20.32628718	     18.75714426	      1.29883161	     81.65789754	     33.58543025	      2.27880296	    -18.26463069	      5.54470066	     19.32234761	      0.20032157	     96.18584233	     21.52401396	     42.10389691	     -1.61886761	     -2.31719622
      0.09302326	     -0.17988490	     -6.12406196	    108.95188208	      0.16839338	      1.05473548	      0.53298940	      7.45681133	     -2.51945305	    -14.91076417	      3.31855007	      0.05791963	     25.43228563	     13.76849814	      0.00000000	     14.63614022	      1.83907579	      9.09571752	     11.62313840	      0.20286203	     21.16583656	      4.17147860	      0.00000000	     -0.13116906	     -0.22414229	     -2.00000925	     -0.24359407	     -0.29810924	     -2.12500983	     -0.21549765	     -0.54497956	     -2.12500983	     -0.14991312	     -0.54497956	     -1.75000809	     -0.12180359	     -0.45707095	     -1.62500752	     -0.07495000	     -0.34719640	     -1.50000694	     -0.93692750	     -2.53554239	    -11.12345144	      0.00000000	      0.00000000	     15.65179501	      1.00532551	    -20.60800751	     18.54980699	      1.26216360	     82.16798375	     33.57181300	      2.26320022	    -18.14379421	      5.93720451	     19.07565566	      0.36896285	     96.32721392	     21.41070501	     41.55598651	     -1.19281461	     -1.66691603
      0.11627907	      0.45590887	     -5.94115569	    109.68260730	      0.16740107	      1.05455129	      0.53269237	      7.42918387	     -1.94778729	    -16.26585210	      3.45583887	      0.06031577	     25.47596675	     14.54556581	      0.00000000	     15.22577059	      1.07580848	      6.95558558	     12.70483243	      0.22174116	     22.27214799	      7.86701134	      0.00000000	     -0.12335386	     -0.14574415	     -2.12543765	     -0.22908045	     -0.19383972	     -2.25827751	     -0.20265805	     -0.35436234	     -2.25827751	     -0.14098112	     -0.35436234	     -1.85975795	     -0.11454639	     -0.29720148	     -1.72691809	     -0.07048439	     -0.22575769	     -1.59407824	     -0.88110425	     -1.64868701	    -11.82104660	      0.00000000	      0.00000000	     15.35187838	      0.77009180	    -20.43744772	     18.63815507	      1.22179847	     83.70907455	     33.51843454	      2.29361175	    -17.89225300	      6.37627570	     19.19872928	      0.68822557	     97.82366422	     21.06593983	     39.99103955	     -1.09763433	     -1.80257020
      0.13953488	      0.75717017	     -5.66170129	    109.88218103	      0.16672488	      1.05466339	      0.53174676	      7.15517403	     -1.55919407	    -16.13571811	      3.42078818	      0.05970402	     25.45009173	     14.07854303	      0.00000000	     15.14627542	      0.68687958	      6.60614466	     13.02741123	      0.22737122	     22.65855156	      8.35385543	      0.00000000	     -0.11921321	     -0.09879379	     -2.15550797	     -0.22139086	     -0.13139574	     -2.29022722	     -0.19585539	     -0.24020722	     -2.29022722	     -0.13624878	     -0.24020722	     -1.88606947	     -0.11070139	     -0.20146029	     -1.75135022	     -0.06811843	     -0.15303158	     -1.61663098	     -0.85152806	     -1.11757508	    -11.98828866	      0.00000000	      0.00000000	     14.79085609	      0.37008473	    -20.49103977	     18.64878238	      1.20333432	     84.92865915	     33.48542458	      2.62890210	    -17.74787321	      7.04832245	     19.23553454	      0.83199929	     97.69059624	     20.92362272	     40.67660651	     -1.25122827	     -1.68098950
      0.16279070	      0.99715702	     -5.41281805	    109.82028425	      0.16627012	      1.05480402	      0.53078800	      6.96099841	     -1.24954188	    -16.22112630	      3.48050046	      0.06074619	     25.54557128	     14.23288197	      0.00000000	     15.05416737	      0.29692345	      5.90783377	     13.35201566	      0.23303663	     23.08976929	      9.12644149	      0.00000000	     -0.10265922	     -0.05735858	     -2.14355681	     -0.19064844	     -0.07628691	     -2.27752911	     -0.16865883	     -0.13946164	     -2.27752911	     -0.11732922	     -0.13946164	     -1.87561220	     -0.09532935	     -0.11696561	     -1.74163990	     -0.05865948	     -0.08884843	     -1.60766760	     -0.73328454	     -0.64885168	    -11.92181988	      0.00000000	      0.00000000	     14.31579656	      0.21275537	    -20.44274803	     19.12871787	      1.26150995	     87.72067794	     33.22111571	      3.17333035	    -17.16414065	      7.42216022	     19.55622539	      1.14519803	     99.09013523	     20.37122277	     41.88388886	     -1.74829890	     -2.52219082
      0.18604651	      1.12497929	     -5.14254491	    109.32400103	      0.16614977	      1.05500025	      0.52961135	      6.73417989	     -0.99677969	    -15.82831875	      3.52620135	      0.06154382	     25.71975487	     14.30627361	      0.00000000	     14.70611595	     -0.02096989	      5.46804304	     13.38613617	      0.23363215	     23.16036956	      9.09232368	      0.00000000	     -0.09256217	     -0.02585531	     -2.02501366	     -0.17189721	     -0.03438757	     -2.15157702	     -0.15207039	     -0.06286461	     -2.15157702	     -0.10578930	     -0.06286461	     -1.77188696	     -0.08595323	     -0.05272416	     -1.64532360	     -0.05289002	     -0.04004988	     -1.51876025	     -0.66116232	     -0.29248049	    -11.26251849	      0.00000000	      0.00000000	     13.94993135	      0.12854943	    -20.69714054	     19.28067686	      1.21320008	     88.91404507	     33.18728079	      3.81607846	    -17.12598387	      8.15205312	     19.77034025	      1.45883361	     99.69907919	     19.87554705	     42.77610958	     -2.22066077	     -3.01035325
      0.20930233	      1.13403546	     -5.03770252	    109.27708159	      0.16604919	      1.05500759	      0.52837166	      6.56303941	     -0.92585055	    -15.80760368	      3.52934214	      0.06159864	     25.91538549	     14.27716093	      0.00000000	     14.54673190	     -0.09793587	      5.42027131	     13.48371024	      0.23533514	     22.76996910	      9.11792094	      0.00000000	     -0.06209302	     -0.01961119	     -1.99212769	     -0.11531295	     -0.02608289	     -2.11663568	     -0.10201263	     -0.04768266	     -2.11663568	     -0.07096612	     -0.04768266	     -1.74311173	     -0.05765958	     -0.03999115	     -1.61860375	     -0.03547995	     -0.03037774	     -1.49409577	     -0.44352426	     -0.22184574	    -11.07961660	      0.00000000	      0.00000000	     14.02245453	      0.13511857	    -20.70750559	     19.10101747	      1.27974439	     89.07377064	     33.27414210	      3.88004690	    -17.10167209	      8.21576436	     19.83506172	      1.42394638	     99.75012856	     19.79660097	     42.87798887	     -2.26595541	     -3.07260244
      0.23255814	      0.56740998	     -4.75185191	    107.47648662	      0.16797964	      1.05576893	      0.52681533	      6.26433342	     -1.19251362	    -13.48794379	      3.60112540	      0.06285149	     26.02613296	     13.61421236	      0.00000000	     13.39389880	     -0.06278961	      3.57746801	     12.57305163	      0.21944115	     21.77705911	      9.00530582	      0.00000000	     -0.09131395	     -0.07473648	     -1.64111422	     -0.16957914	     -0.09939952	     -1.74368386	     -0.15001969	     -0.18171428	     -1.74368386	     -0.10436271	     -0.18171428	     -1.43597494	     -0.08479413	     -0.15240263	     -1.33340530	     -0.05217679	     -0.11576681	     -1.23083566	     -0.65224642	     -0.84543401	     -9.12738496	      0.00000000	      0.00000000	     13.98129346	      0.65990876	    -21.04626687	     19.36960907	      1.39048108	     89.70526846	     33.40518443	      4.50430014	    -16.80995669	      8.25819724	     20.32881691	      1.89810392	    102.82689991	     18.38234362	     47.79371963	     -3.72028401	     -5.19232444
